# xmcd
#
# Track frame offsets: 
#        150
#        22730
#        41018
#        57315
#        72772
#        87130
#        104397
#        119871
#        135006
#        159458
#
# Disc length: 2336 seconds
#
# Revision: 1
# Processed by: cddbd v1.5.2PL0 Copyright (c) Steve Scherf et al.
# Submitted via: ExactAudioCopyFreeDBPlugin 1.0
#
DISCID=7a091e0a
DTITLE=Art Garfunkel - Angel Clare
DYEAR=1973
DGENRE=Pop
TTITLE0=Traveling Boy
TTITLE1=Down In The Willow Garden
TTITLE2=I Shall Sing
TTITLE3=Old Man
TTITLE4=Feuilles-Oh | Do Space Men Pass Dead Souls On Their Way To The
TTITLE4=Moon?
TTITLE5=All I Know
TTITLE6=Mary Was An Only Child
TTITLE7=Woyaya
TTITLE8=Barbara Allen
TTITLE9=Another Lullaby
EXTD=Year: 2004
EXTT0=
EXTT1=
EXTT2=
EXTT3=
EXTT4=
EXTT5=
EXTT6=
EXTT7=
EXTT8=
EXTT9=
PLAYORDER=
